<svg width="621" height="613" viewBox="0 0 621 613" fill="none" xmlns="http://www.w3.org/2000/svg">
<g clip-path="url(#clip0)">
<path d="M555.507 597.788H553.44C552.622 597.788 551.933 597.097 551.804 596.103L539.101 507.47H548.747L557.143 595.541C557.272 596.708 556.497 597.788 555.507 597.788Z" fill="#520DD0"/>
<path opacity="0.3" d="M555.507 597.788H553.44C552.622 597.788 551.933 597.097 551.804 596.103L539.101 507.47H548.747L557.143 595.541C557.272 596.708 556.497 597.788 555.507 597.788Z" fill="black"/>
<path d="M581.945 597.788H579.878C579.06 597.788 578.371 597.097 578.242 596.103L565.54 507.47H575.185L583.582 595.541C583.711 596.708 582.936 597.788 581.945 597.788Z" fill="#520DD0"/>
<path opacity="0.3" d="M581.945 597.788H579.878C579.06 597.788 578.371 597.097 578.242 596.103L565.54 507.47H575.185L583.582 595.541C583.711 596.708 582.936 597.788 581.945 597.788Z" fill="black"/>
<path d="M434.597 597.788H436.664C437.482 597.788 438.171 597.097 438.3 596.103L451.002 507.47H441.357L432.96 595.541C432.831 596.708 433.606 597.788 434.597 597.788Z" fill="#520DD0"/>
<path opacity="0.3" d="M434.597 597.788H436.664C437.482 597.788 438.171 597.097 438.3 596.103L451.002 507.47H441.357L432.96 595.541C432.831 596.708 433.606 597.788 434.597 597.788Z" fill="black"/>

<path d="M408.158 597.788H410.225C411.043 597.788 411.732 597.097 411.861 596.103L424.564 507.47H414.919L406.522 595.498C406.393 596.708 407.168 597.788 408.158 597.788Z" fill="#520DD0"/>
<path opacity="0.3" d="M408.158 597.788H410.225C411.043 597.788 411.732 597.097 411.861 596.103L424.564 507.47H414.919L406.522 595.498C406.393 596.708 407.168 597.788 408.158 597.788Z" fill="black"/>
<path d="M373.926 402.372H438.86C450.356 362.225 491.822 330.549 534.279 330.549H555.378C599.815 330.549 628.449 365.25 619.407 408.033C617.728 415.898 614.929 423.46 611.14 430.634L600.891 492.906C599.557 500.944 593.184 507.47 586.639 507.47H391.236C384.691 507.47 378.275 500.944 376.983 492.906L364.496 416.935C363.075 408.897 367.338 402.372 373.926 402.372Z" fill="#9C6FFF"/>
<path opacity="0.5" d="M373.926 402.372H438.86C450.356 362.225 491.822 330.549 534.279 330.549H555.378C599.815 330.549 628.449 365.25 619.407 408.033C617.728 415.898 614.929 423.46 611.14 430.634L600.891 492.906C599.557 500.944 593.184 507.47 586.639 507.47H391.236C384.691 507.47 378.275 500.944 376.983 492.906L364.496 416.935C363.075 408.897 367.338 402.372 373.926 402.372Z" fill="white"/>
<path d="M357.65 574.841L373.711 582.231C374.314 582.49 374.572 583.095 374.314 583.7L369.276 596.838C368.759 598.221 366.951 598.869 365.616 598.221C360.061 595.541 357.521 593.986 350.459 590.744C346.11 588.757 334.183 582.058 328.843 578.169C323.59 574.366 327.465 569.094 330.049 570.261C341.804 575.446 349.253 575.922 354.765 574.582C355.755 574.366 356.789 574.453 357.65 574.841Z" fill="#0A1128"/>
<path d="M471.671 377.048C471.671 377.048 368.888 378.344 367.295 419.009C365.013 477.479 356.401 574.496 356.401 574.496L373.754 582.231C373.754 582.231 404.111 484.825 405.187 439.191C434.037 431.974 508.443 439.234 517.184 415.466C524.332 396.019 520.457 377.048 520.457 377.048H471.671Z" fill="#06b2d4"/>
<path d="M493.545 270.092C492.64 273.851 491.736 277.222 490.703 280.722C489.669 284.18 488.636 287.68 487.516 291.094C485.277 297.965 482.78 304.836 479.895 311.621C477.053 318.406 473.867 325.147 469.991 331.759C468.054 335.086 465.944 338.371 463.446 341.612C460.949 344.853 458.15 348.094 454.49 351.119L454.189 351.335C453.973 351.508 453.758 351.638 453.543 351.811C451.088 353.41 448.806 353.928 447.084 354.144C445.318 354.36 443.897 354.274 442.692 354.101C440.237 353.798 438.472 353.237 436.793 352.675C433.477 351.508 430.764 350.125 428.181 348.742C422.971 345.933 418.406 342.822 413.885 339.624C409.407 336.383 405.101 333.055 400.881 329.555C396.705 326.011 392.614 322.511 388.652 318.665C386.327 316.418 386.241 312.658 388.48 310.324C390.375 308.337 393.303 307.991 395.585 309.244L395.671 309.287C400.235 311.837 404.8 314.516 409.407 316.98C413.971 319.529 418.579 322.036 423.143 324.412C427.664 326.789 432.315 328.993 436.707 330.851C438.903 331.759 441.056 332.494 442.864 332.926C443.725 333.142 444.543 333.228 444.759 333.185C444.888 333.185 444.802 333.099 444.328 333.142C443.897 333.185 442.95 333.315 441.572 334.179L440.668 334.87C442.304 333.315 444.07 331.154 445.663 328.691C447.256 326.227 448.849 323.548 450.313 320.782C453.241 315.121 455.825 309.071 458.236 302.848C460.604 296.625 462.843 290.23 464.867 283.791C466.977 277.395 468.872 270.697 470.594 264.431L470.68 264.214C472.446 257.905 478.948 254.232 485.191 256.004C491.349 257.646 495.009 263.912 493.545 270.092Z" fill="#0A1128"/>

<path d="M451.863 583.225H471.154C471.843 583.225 472.403 583.7 472.446 584.392L473.393 599.69C473.479 601.289 472.015 602.801 470.379 602.758C463.662 602.628 460.475 602.24 451.993 602.24C446.782 602.24 436.233 602.801 429.042 602.801C421.98 602.801 422.023 595.671 425.081 595.023C438.773 592.127 444.07 588.108 448.935 584.305C449.797 583.614 450.83 583.225 451.863 583.225Z" fill="#0A1128"/>
<path d="M499.358 377.048C499.358 377.048 406.135 384.956 408.417 425.578C410.914 470.089 451.863 583.225 451.863 583.225H470.723C470.723 583.225 454.576 479.596 448.892 434.307C475.158 434.307 536.13 439.277 544.871 415.466C552.019 396.019 548.144 377.048 548.144 377.048H499.358Z" fill="#06b6d4"/>
<path d="M397.049 311.232C397.049 311.232 394.379 306.867 391.796 304.793C387.964 308.38 385.854 318.838 385.854 318.838L391.107 319.313C391.15 319.313 397.178 317.325 397.049 311.232Z" fill="#06b6d4"/>
<path d="M377.715 301.854L371.73 299.262C370.137 298.57 368.242 299.175 367.338 300.688L364.496 305.398C363.678 306.738 363.85 308.509 364.97 309.633L373.194 318.233L386.93 317.671C388.523 317.628 389.944 316.677 390.633 315.294L392.226 312.183C393.217 310.238 392.657 307.818 390.849 306.608C386.413 303.626 377.715 301.854 377.715 301.854Z" fill="#FFC3BD"/>
<path d="M470.766 266.116C468.011 283.488 464.48 321.128 471.714 377.783L548.144 377.048C547.67 337.766 553.828 300.904 559.813 264.863C560.803 258.856 556.713 253.324 550.727 252.46C532.384 249.824 502.716 249.91 484.761 252.417C477.613 253.411 471.929 258.942 470.766 266.116Z" fill="#0A1128"/>
<path d="M560.545 259.979C562.784 265.554 564.592 270.913 566.444 276.444C568.252 281.933 569.889 287.507 571.396 293.168C572.86 298.829 574.238 304.534 575.314 310.368C576.391 316.245 577.338 322.165 577.639 328.518C577.725 330.074 577.769 331.716 577.769 333.315L577.725 335.778C577.682 337.507 577.424 340.186 575.831 343.038C575.056 344.421 573.85 345.804 572.644 346.798C571.999 347.316 571.353 347.748 570.75 348.094C570.061 348.483 569.501 348.742 568.898 348.958C566.53 349.823 564.722 349.952 563.258 349.952C560.373 349.909 558.349 349.391 556.497 348.872C552.88 347.835 549.995 346.538 547.153 345.156C544.355 343.773 541.728 342.303 539.187 340.834C528.982 334.784 519.811 327.999 510.941 320.523C508.443 318.449 508.142 314.689 510.209 312.226C511.974 310.108 514.859 309.547 517.227 310.67L517.356 310.757C527.303 315.51 537.465 320.394 547.326 324.499C549.78 325.536 552.234 326.487 554.646 327.265C557.014 328.086 559.382 328.777 561.234 329.08C562.095 329.209 562.913 329.209 562.827 329.123C562.741 329.08 562.353 329.036 561.277 329.382C561.019 329.469 560.76 329.598 560.373 329.771C560.071 329.944 559.727 330.16 559.339 330.463C558.65 331.024 557.918 331.845 557.488 332.623C556.583 334.222 556.54 335.432 556.497 335.778L556.368 334.049C556.282 332.839 556.153 331.673 555.981 330.419C554.646 320.48 551.89 309.936 548.79 299.564C545.689 289.193 542.159 278.562 538.542 268.493L538.499 268.406C536.303 262.27 539.489 255.485 545.603 253.281C551.589 251.12 558.177 254.102 560.545 259.979Z" fill="#0A1128"/>
<path d="M529.973 213.567L520.715 221.259L508.142 231.76C508.529 233.489 508.788 235.217 508.96 236.86C509.563 242.953 508.228 248.571 500.865 251.423C498.066 252.503 495.655 254.534 494.75 257.387C493.76 260.628 494.923 264.214 505.085 264.214C519.983 264.214 527.734 257.559 530.662 254.275C531.48 253.368 531.48 251.985 530.791 250.991C524.892 242.607 527.562 224.068 529.973 213.567Z" fill="#FFC3BD"/>
<path d="M504.697 260.973C504.697 260.973 505.687 262.054 505.989 263.609C506.764 262.313 508.788 260.973 508.788 260.973C508.788 260.973 513.223 262.961 514.127 267.24C511.285 267.067 506.118 264.258 506.118 264.258C506.118 264.258 503.448 265.813 500.736 265.943C500.865 262.572 504.697 260.973 504.697 260.973Z" fill="#06b6d4"/>
<path d="M508.745 260.973C513.051 265.813 513.826 272.252 513.826 272.252C513.826 272.252 538.499 266.073 537.336 249.91C535.269 248.614 530.49 247.793 530.49 247.793C530.49 247.793 525.236 257.473 508.745 260.973Z" fill="#06b6d4"/>
<path d="M504.697 260.973C500.391 265.813 499.272 272.252 499.272 272.252C499.272 272.252 486.612 260.671 498.927 250.04C501.08 249.133 505.429 248.657 505.429 248.657C505.429 248.657 497.248 255.312 504.697 260.973Z" fill="#06b6d4"/>
<path opacity="0.2" d="M508.142 231.76C508.529 233.489 508.788 235.217 508.96 236.86C513.653 235.909 519.94 230.896 520.586 226.099C520.844 224.284 520.887 222.556 520.758 221.302L508.142 231.76Z" fill="black"/>
<path d="M494.621 180.248C482.995 188.502 489.497 207.906 499.401 200.473C509.304 193.04 504.094 173.507 494.621 180.248Z" fill="#0A1128"/>
<path d="M533.762 197.491C530.533 212.314 529.413 221.129 520.672 227.914C507.539 238.113 490.143 229.038 488.851 213.697C487.689 199.868 493.157 177.958 508.702 173.766C524.074 169.661 536.992 182.668 533.762 197.491Z" fill="#FFC3BD"/>
<path d="M526.959 186.514C518.777 184.224 497.635 189.626 490.143 181.631C482.091 173.032 493.846 168.84 497.291 171.822C492.899 166.809 494.535 161.407 500.736 161.882C505.257 162.228 506.678 167.284 506.678 167.284C506.678 167.284 505.903 158.468 513.696 159.073C520.758 159.635 520.758 169.185 520.758 169.185C520.758 169.185 537.594 164.389 543.235 180.551C553.828 180.292 553.612 202.72 532.255 210.671C523.643 206.35 523.256 191.095 526.959 186.514Z" fill="#0A1128"/>
<path d="M540.996 183.749C539.963 183.749 539.058 183.014 538.886 181.977C538.671 180.81 539.446 179.687 540.608 179.47C540.781 179.427 541.384 178.952 541.857 177.915C542.374 176.834 542.675 175.192 542.072 173.896C541.599 172.815 542.072 171.519 543.149 171.044C544.225 170.525 545.517 171.044 545.991 172.124C547.283 174.976 546.594 178.131 545.517 180.205C544.484 182.15 542.977 183.446 541.384 183.749C541.254 183.749 541.125 183.749 540.996 183.749Z" fill="#0A1128"/>
<path d="M536.173 211.276C534.02 214.129 530.834 215.814 528.078 216.333C523.902 217.067 522.61 213.221 524.461 209.461C526.141 206.091 530.317 201.64 534.15 202.59C537.982 203.541 538.671 207.992 536.173 211.276Z" fill="#FFC3BD"/>
<path d="M508.486 198.874C508.314 200.084 507.496 200.991 506.721 200.905C505.946 200.819 505.429 199.738 505.601 198.528C505.774 197.318 506.592 196.411 507.367 196.497C508.185 196.584 508.659 197.664 508.486 198.874Z" fill="#0A1128"/>
<path d="M494.707 197.232C494.535 198.442 493.717 199.349 492.942 199.263C492.167 199.176 491.65 198.096 491.822 196.886C491.995 195.676 492.813 194.768 493.588 194.855C494.363 194.941 494.923 196.022 494.707 197.232Z" fill="#0A1128"/>
<path d="M498.927 197.707C498.927 197.707 496.042 203.627 493.2 206.393C494.88 208.208 498.109 207.603 498.109 207.603L498.927 197.707Z" fill="#FF847F"/>
<path d="M503.707 213.826C508.529 213.826 511.242 210.801 511.371 210.671C511.5 210.542 511.5 210.283 511.328 210.153C511.199 210.023 510.941 210.023 510.812 210.196C510.768 210.239 507.711 213.653 502.372 213.048C502.157 213.005 501.984 213.178 501.984 213.351C501.941 213.567 502.114 213.74 502.286 213.74C502.759 213.783 503.233 213.826 503.707 213.826Z" fill="#0A1128"/>
<path d="M513.998 191.83C514.127 191.787 514.213 191.743 514.299 191.657C514.601 191.398 514.644 190.922 514.342 190.62C511.716 187.681 508.443 188.2 508.271 188.243C507.883 188.286 507.625 188.675 507.668 189.064C507.754 189.453 508.099 189.712 508.486 189.669C508.616 189.669 511.156 189.28 513.223 191.614C513.481 191.83 513.74 191.916 513.998 191.83Z" fill="#0A1128"/>
<path d="M489.799 191.052C490.014 191.095 490.272 191.052 490.444 190.922C492.942 188.805 495.569 189.496 495.569 189.54C495.956 189.669 496.344 189.41 496.473 189.021C496.559 188.632 496.344 188.243 495.999 188.113C495.87 188.07 492.641 187.206 489.54 189.799C489.239 190.058 489.196 190.49 489.454 190.836C489.54 190.922 489.669 191.009 489.799 191.052Z" fill="#0A1128"/>
<path d="M514.902 300.688L506.462 295.415C503.922 293.816 500.606 294.638 499.056 297.187L498.066 298.829C496.86 300.817 497.076 303.367 498.626 305.139L504.439 311.837C504.439 311.837 509.52 323.678 515.376 320.566L519.854 312.788L514.902 300.688Z" fill="#FFC3BD"/>
<path d="M523.6 315.813C523.6 315.813 521.49 310.584 519.208 307.904C514.988 311.535 511.543 323.159 511.543 323.159L516.711 324.283C516.668 324.326 522.954 322.727 523.6 315.813Z" fill="#06b6d4"/>
<path d="M588.189 402.372H488.119C481.574 402.372 477.311 408.897 478.646 416.935L491.133 492.906C492.468 500.944 498.841 507.47 505.386 507.47H575.788L588.189 402.372Z" fill="#9C6FFF"/>
<path opacity="0.5" d="M588.189 402.372H488.119C481.574 402.372 477.311 408.897 478.646 416.935L491.133 492.906C492.468 500.944 498.841 507.47 505.386 507.47H575.788L588.189 402.372Z" fill="white"/>
<path d="M126.465 604.314H129.35C130.34 604.314 131.158 603.493 131.201 602.412L147.09 362.787H135.206L124.613 602.196C124.527 603.32 125.388 604.314 126.465 604.314Z" fill="#2D0774"/>
<path d="M93.6968 604.314H96.5818C97.5722 604.314 98.3903 603.493 98.4334 602.412L114.322 362.787H102.395L91.8022 602.196C91.7592 603.32 92.6204 604.314 93.6968 604.314Z" fill="#2D0774"/>
<path d="M497.765 604.314H494.88C493.889 604.314 493.071 603.493 493.028 602.412L477.096 362.744H489.023L499.616 602.153C499.702 603.32 498.841 604.314 497.765 604.314Z" fill="#2D0774"/>
<path d="M530.533 604.314H527.648C526.657 604.314 525.839 603.493 525.796 602.412L509.907 362.787H521.835L532.427 602.196C532.47 603.32 531.609 604.314 530.533 604.314Z" fill="#2D0774"/>
<path d="M544.312 357.817H79.2289V362.744H544.312V357.817Z" fill="#8039FF"/>
<path d="M71.4783 281.5L67.0862 313.955C65.7084 324.758 64.2443 335.605 63.2109 346.236C63.0817 347.576 62.9526 348.872 62.8664 350.212L62.6942 352.2C62.6942 352.07 62.6942 351.551 62.6081 351.249C62.565 350.946 62.4789 350.601 62.3928 350.341C62.3497 350.125 62.1775 349.823 62.0914 349.65C62.0053 349.477 61.9191 349.304 61.833 349.218C61.4886 348.786 61.4455 348.829 61.5316 348.915C61.6177 349.045 61.8761 349.218 62.1775 349.477C62.8234 349.952 63.7276 350.471 64.718 350.99C68.8086 352.977 73.8465 354.706 78.8845 356.262C89.0034 359.33 99.5959 362.009 110.102 364.602L108.897 373.85C97.7013 373.461 86.6782 372.424 75.4828 370.393C69.8851 369.313 64.2874 368.146 58.3022 365.855C56.7951 365.25 55.245 364.559 53.5226 363.608C52.6614 363.133 51.8002 362.571 50.8529 361.793C49.9056 361.015 48.8722 360.108 47.7957 358.509C47.279 357.688 46.7192 356.737 46.3317 355.57C46.1164 354.965 45.9872 354.274 45.8581 353.626C45.7719 352.977 45.7289 352.113 45.7289 351.638L45.7719 349.477C45.815 348.051 45.815 346.625 45.9011 345.199C46.3748 333.877 47.3651 322.857 48.5708 311.837C49.7334 300.817 51.1543 289.884 52.8767 278.908L71.4783 281.5Z" fill="#903C38"/>
<path d="M134.431 374.239L127.369 380.721C125.733 382.234 123.322 382.579 121.298 381.629L113.504 377.869C113.504 377.869 101.921 377.394 100.285 370.306L103.299 364.775L121.255 362.787C123.106 362.571 124.958 363.003 126.551 363.954L133.957 368.491C135.938 369.701 136.196 372.597 134.431 374.239Z" fill="#903C38"/>
<path d="M92.1036 214.82C93.9552 225.926 95.5053 246.28 87.5824 253.411C87.5824 253.411 106.959 263.566 119.618 281.327C133.182 270.524 121.814 254.448 121.814 254.448C109.629 251.12 110.188 242.002 112.6 233.446L92.1036 214.82Z" fill="#903C38"/>
<path d="M128.316 261.319C128.316 261.319 127.283 251.898 122.159 247.231C117.853 243.299 95.2469 245.503 88.0991 246.28C86.7643 246.41 85.6017 247.274 84.9988 248.484L79.8317 259.331L128.316 261.319Z" fill="#007CFF"/>
<path opacity="0.8" d="M128.316 261.319C128.316 261.319 127.283 251.898 122.159 247.231C117.853 243.299 95.2469 245.503 88.0991 246.28C86.7643 246.41 85.6017 247.274 84.9988 248.484L79.8317 259.331L128.316 261.319Z" fill="white"/>
<path d="M65.6653 256.349C51.7141 260.887 48.7 279.685 49.9487 294.292L78.1094 311.664C78.1094 311.664 84.9558 290.316 84.9128 278.907C84.8267 266.807 75.1383 253.238 65.6653 256.349Z" fill="#06b6d4"/>
<path d="M71.0908 307.429C70.4018 307.429 69.756 307.17 69.2392 306.694C69.1101 306.565 69.0239 306.435 68.9378 306.306C68.8517 306.176 68.7656 306.003 68.6795 305.83C68.6364 305.657 68.5503 305.528 68.5072 305.355C68.4642 305.182 68.4642 305.009 68.4642 304.836C68.4642 304.145 68.7656 303.453 69.2392 302.978C70.2296 301.984 71.995 301.984 72.9423 302.978C73.416 303.453 73.7174 304.145 73.7174 304.836C73.7174 305.009 73.7174 305.182 73.6743 305.355C73.6313 305.528 73.5882 305.701 73.5021 305.83C73.459 306.003 73.3729 306.176 73.2868 306.306C73.2007 306.435 73.0715 306.565 72.9423 306.694C72.4687 307.17 71.8228 307.429 71.0908 307.429Z" fill="white"/>
<path d="M65.7084 305.657C64.718 305.268 64.0721 304.318 64.0291 303.281C63.2971 303.972 62.1775 304.188 61.1872 303.713C60.2399 303.281 59.637 302.287 59.6801 301.293C58.905 301.941 57.7855 302.071 56.8382 301.552C55.8909 301.033 55.3742 300.039 55.4603 299.045C54.6422 299.607 53.5226 299.694 52.5753 299.132C51.3266 298.397 50.9391 296.755 51.6711 295.545C52.4031 294.292 54.0393 293.903 55.2881 294.638C56.1493 295.199 56.5798 296.15 56.5368 297.101C57.3119 296.539 58.3883 296.453 59.2926 296.928C60.1968 297.403 60.7135 298.354 60.6705 299.305C61.4025 298.7 62.479 298.57 63.3832 298.959C64.3305 299.391 64.8472 300.299 64.8903 301.249C65.6223 300.644 66.6126 300.385 67.603 300.774C68.9378 301.336 69.6268 302.848 69.067 304.188C68.6795 305.225 67.6891 305.83 66.6557 305.83C66.3112 305.83 66.0098 305.744 65.7084 305.657Z" fill="white"/>
<path d="M49.9487 296.928C49.7765 296.928 49.6042 296.928 49.432 296.885C49.2598 296.842 49.0875 296.798 48.9584 296.712C48.7861 296.669 48.6139 296.582 48.4847 296.496C48.3555 296.409 48.2264 296.28 48.0972 296.15C47.968 296.02 47.8819 295.891 47.7527 295.761C47.6666 295.588 47.5805 295.459 47.4943 295.286C47.4513 295.113 47.3652 294.94 47.3221 294.81C47.3221 294.638 47.2791 294.465 47.2791 294.292C47.2791 294.119 47.2791 293.946 47.3221 293.773C47.3652 293.6 47.4082 293.428 47.4943 293.255C47.5374 293.082 47.6666 292.952 47.7527 292.823C47.8388 292.693 47.9249 292.563 48.0972 292.434C48.2264 292.304 48.3555 292.218 48.4847 292.088C48.6139 292.002 48.7861 291.915 48.9584 291.872C49.1306 291.829 49.2598 291.742 49.432 291.699C50.2932 291.526 51.1974 291.829 51.8003 292.434C51.9294 292.563 52.0156 292.693 52.1447 292.823C52.2309 292.952 52.317 293.125 52.4031 293.255C52.4462 293.428 52.5323 293.6 52.5323 293.773C52.5753 293.946 52.5753 294.119 52.5753 294.292C52.5753 294.465 52.5753 294.638 52.5323 294.81C52.5323 294.983 52.4462 295.156 52.4031 295.286C52.317 295.459 52.2309 295.588 52.1447 295.761C52.0586 295.891 51.9294 296.02 51.8003 296.15C51.3266 296.625 50.6377 296.928 49.9487 296.928Z" fill="white"/>
<path d="M154.367 283.618C153.205 299.694 149.631 326.789 140.847 372.424L65.4069 370.177C67.3877 342.217 64.4166 321.387 57.5702 272.468C56.3215 263.523 62.7373 255.399 71.6505 254.448C76.4732 253.929 81.9848 253.54 87.5394 253.411C100.242 253.195 110.662 253.065 121.815 254.448C125.475 254.88 129.307 255.485 132.924 256.09C146.057 258.38 155.358 270.265 154.367 283.618Z" fill="#06b6d4"/>
<path d="M131.115 194.336C131.288 195.849 132.235 196.929 133.182 196.843C134.129 196.756 134.818 195.417 134.603 193.947C134.431 192.435 133.484 191.355 132.536 191.441C131.589 191.571 130.943 192.867 131.115 194.336Z" fill="#060A16"/>
<path d="M132.149 191.571L135.593 190.101C135.593 190.101 134.086 193.126 132.149 191.571Z" fill="#060A16"/>
<path d="M131.632 196.67C131.632 196.67 134.905 202.806 138.091 205.572C136.325 207.646 132.924 207.214 132.924 207.214L131.632 196.67Z" fill="#740606"/>
<path d="M131.331 181.242C131.503 180.983 131.546 180.681 131.417 180.378C131.201 179.946 130.685 179.73 130.254 179.946C125.862 182.02 125.259 186.082 125.259 186.255C125.173 186.731 125.518 187.163 126.034 187.249C126.508 187.336 126.939 186.99 127.025 186.514C127.025 186.385 127.541 183.23 131.029 181.588C131.115 181.502 131.244 181.372 131.331 181.242Z" fill="#060A16"/>
<path d="M79.7887 194.034C83.1043 212.227 84.1377 220.006 94.4719 228.346C110.059 240.835 131.589 232.754 133.785 213.956C135.723 197.016 129.996 170.093 111.222 164.907C92.7495 159.808 76.4731 175.797 79.7887 194.034Z" fill="#903C38"/>
<path d="M119.748 199.09C122.805 209.116 130.082 233.273 113.978 238.675C101.404 242.866 61.9622 246.237 57.3979 223.074C52.7045 199.09 74.0188 182.02 74.0188 182.02C74.0188 182.02 57.1396 168.148 67.9475 152.98C81.8986 133.49 115.27 144.51 125.173 158.295C134.818 171.735 119.748 199.09 119.748 199.09Z" fill="#060A16"/>
<path d="M89.2187 242.002C82.7598 242.002 74.7508 240.662 68.1627 237.81C59.2064 233.921 53.9962 227.957 53.0489 220.524C49.9056 195.244 73.3298 181.329 73.5451 181.199L74.4924 182.841C74.2771 182.971 51.8863 196.281 54.9005 220.308C55.977 228.822 63.1248 233.619 68.8947 236.125C80.3485 241.051 95.1178 241.051 98.6917 238.415L99.8112 239.928C97.9597 241.268 94.0413 242.002 89.2187 242.002Z" fill="#060A16"/>
<path d="M66.7849 178.433C66.5696 181.674 63.8999 186.126 75.0522 187.768C86.2046 189.453 101.749 189.28 104.935 186.601C108.122 183.922 111.265 177.439 104.591 178.044C97.9598 178.606 67.1293 172.902 66.7849 178.433Z" fill="#06b6d4"/>
<path d="M113.633 201.985C115.528 205.615 118.973 208.035 122.202 208.986C127.068 210.412 129.565 206.048 128.273 201.424C127.111 197.232 123.149 191.484 118.241 192.089C113.418 192.651 111.48 197.794 113.633 201.985Z" fill="#903C38"/>
<path d="M231.228 584.305L249.141 583.96L240.486 539.146L222.573 539.492L231.228 584.305Z" fill="#903C38"/>
<path d="M244.662 564.772C249.399 582.663 266.795 601.591 266.795 601.591L241.993 595.282L231.142 579.811L233.036 575.706L244.662 564.772Z" fill="#903C38"/>
<path d="M227.008 573.07C226.922 575.058 227.094 577.305 227.353 579.336C228.386 586.725 231.659 606.345 231.659 606.345H233.338C233.338 606.345 231.745 593.164 231.96 588.281C232.175 583.398 235.319 591.998 239.108 596.881C242.897 601.764 249.7 606.172 260.68 606.518C273.555 606.907 278.679 606.388 274.589 603.147C270.455 599.906 261.671 597.832 261.671 597.832C261.671 597.832 251.552 594.158 244.275 583.225C239.581 576.138 231.702 570.995 228.3 569.353C227.31 569.569 227.094 571.514 227.008 573.07Z" fill="#060A16"/>
<path d="M294.568 523.416L317.433 524.107L291.898 486.035L276.053 499.562L294.568 523.416Z" fill="#903C38"/>
<path d="M299.994 507.254C316.571 514.989 343.139 513.477 343.139 513.477L321.523 530.849L303.008 529.466L301.07 525.317L299.994 507.254Z" fill="#903C38"/>
<path d="M296.506 527.003C297.927 528.429 299.649 529.855 301.285 531.022C307.357 535.257 323.676 546.104 323.676 546.104L324.71 544.764C324.71 544.764 314.074 536.985 310.629 533.485C307.228 529.985 315.452 533.399 321.351 533.744C327.25 534.09 334.699 531.756 341.718 523.286C349.985 513.39 352.741 508.982 347.832 510.019C342.924 511.057 335.948 516.545 335.948 516.545C335.948 516.545 327.035 522.033 314.548 520.305C306.452 519.181 297.841 521.86 294.525 523.416C294.094 524.367 295.386 525.879 296.506 527.003Z" fill="#060A16"/>
<path d="M114.538 371.084C114.538 371.084 236.653 352.934 249.313 384.351C271.316 439.018 302.362 501.636 302.362 501.636L287.377 514.082C287.377 514.082 234.113 464.601 215.167 409.675C192.561 417.021 120.566 440.66 94.1705 440.66C66.0098 440.66 54.513 416.546 64.6749 376.529C65.5792 372.942 68.8086 370.479 72.4687 370.522C90.2521 370.695 114.538 371.084 114.538 371.084Z" fill="#060A16"/>
<path d="M126.25 387.074C126.25 387.074 226.492 384.049 227.31 419.701C228.688 478.646 245.265 563.087 245.265 563.087L226.965 564.816C226.965 564.816 197.082 497.617 189.159 440.055C153.463 442.389 120.523 440.79 94.1705 440.79C64.6319 440.79 62.1775 408.206 90.9411 370.22C108.552 370.177 126.25 387.074 126.25 387.074Z" fill="#060A16"/>
<path d="M64.4166 365.683L62.3067 372.381C62.0483 372.899 62.6512 373.461 63.5123 373.461L141.148 375.795C141.837 375.795 142.397 375.492 142.44 375.06L143.301 368.319C143.344 367.843 142.784 367.454 142.052 367.411L65.6653 365.164C65.1055 365.164 64.5888 365.38 64.4166 365.683Z" fill="white"/>
<path d="M74.4064 374.585L72.3395 374.541C71.952 374.541 71.6075 374.325 71.6506 374.066L72.8562 365.293C72.8993 365.034 73.2438 364.818 73.6744 364.861L75.7412 364.905C76.1287 364.905 76.4732 365.121 76.4301 365.38L75.2245 374.153C75.1814 374.369 74.837 374.585 74.4064 374.585Z" fill="#1A2E35"/>
<path d="M135.378 376.4L133.311 376.357C132.924 376.357 132.579 376.14 132.622 375.881L133.828 367.109C133.871 366.849 134.216 366.633 134.646 366.676L136.713 366.72C137.101 366.72 137.445 366.936 137.402 367.195L136.196 375.968C136.11 376.227 135.766 376.4 135.378 376.4Z" fill="#1A2E35"/>
<path d="M104.892 375.492L102.825 375.449C102.438 375.449 102.093 375.233 102.136 374.974L103.342 366.201C103.385 365.942 103.73 365.726 104.16 365.769L106.227 365.812C106.615 365.812 106.959 366.028 106.916 366.287L105.71 375.06C105.667 375.276 105.28 375.492 104.892 375.492Z" fill="#1A2E35"/>
<path d="M197.857 290.359H246.6C248.15 290.359 249.27 291.872 248.839 293.341L230.625 356.089C230.324 357.083 229.42 357.774 228.386 357.774H179.643C178.093 357.774 176.973 356.262 177.404 354.792L195.618 292.045C195.919 291.051 196.824 290.359 197.857 290.359Z" fill="#007CFF"/>
<path d="M198.761 292.65L246.17 293.773L227.439 352.977L180.031 351.854L198.761 292.65Z" fill="#E1E1E1"/>
<path d="M197.254 292.088L244.662 292.261L227.137 351.854L179.729 351.638L197.254 292.088Z" fill="white"/>
<path d="M154.54 293.298C154.626 295.199 154.798 297.533 154.97 299.694C155.142 301.898 155.401 304.058 155.702 306.262C156.262 310.627 156.951 314.948 157.855 319.184C158.802 323.375 159.879 327.524 161.3 331.37C161.989 333.315 162.807 335.173 163.668 336.945C164.099 337.852 164.572 338.673 165.003 339.494L165.692 340.704C165.649 340.618 165.563 340.618 165.606 340.704C165.735 341.007 167.113 341.871 168.663 342.519C170.299 343.168 172.194 343.729 174.218 344.205C178.265 345.156 182.657 345.761 187.092 346.193C196.006 347.057 205.306 347.489 214.392 347.705L215.296 356.996C205.78 358.855 196.35 360.021 186.576 360.237C181.667 360.367 176.715 360.281 171.548 359.632C168.964 359.287 166.295 358.811 163.496 357.99C160.697 357.083 157.64 356.089 154.281 353.193C153.463 352.502 152.602 351.595 151.87 350.557L150.621 348.829C149.846 347.662 149.071 346.538 148.425 345.328C147.004 342.995 145.842 340.575 144.808 338.155C142.698 333.315 141.105 328.431 139.813 323.505C138.521 318.579 137.617 313.652 136.928 308.726C136.627 306.262 136.325 303.799 136.153 301.293C135.938 298.743 135.809 296.409 135.766 293.6L154.54 293.298Z" fill="#903C38"/>
<path d="M148.21 264.776C160.353 276.228 157.424 306.133 157.424 306.133L134.173 310.195C134.173 310.195 119.834 288.76 124.872 279.772C130.082 270.437 141.622 258.597 148.21 264.776Z" fill="#06b6d4"/>
<path d="M157.381 308.769C156.693 308.769 156.004 308.466 155.53 307.991C155.401 307.861 155.315 307.732 155.185 307.602C155.099 307.472 155.013 307.299 154.97 307.17C154.927 306.997 154.841 306.824 154.798 306.651C154.798 306.478 154.755 306.306 154.755 306.133C154.755 305.441 155.013 304.75 155.487 304.274C155.616 304.145 155.745 304.058 155.874 303.929C156.004 303.842 156.176 303.756 156.305 303.713C156.477 303.626 156.649 303.583 156.822 303.54C157.64 303.367 158.544 303.669 159.19 304.274C159.664 304.75 159.965 305.441 159.965 306.133C159.965 306.306 159.965 306.478 159.922 306.651C159.879 306.824 159.836 306.997 159.75 307.17C159.707 307.343 159.621 307.472 159.534 307.602C159.448 307.775 159.319 307.904 159.19 307.991C158.759 308.466 158.07 308.769 157.381 308.769Z" fill="white"/>
<path d="M136.282 310.152C136.153 308.682 137.23 307.429 138.651 307.299C139.641 307.213 140.588 307.688 141.105 308.553C141.406 307.645 142.225 306.911 143.215 306.781C144.205 306.651 145.196 307.083 145.755 307.904C146.014 306.954 146.746 306.219 147.736 306.046C148.727 305.83 149.717 306.219 150.32 306.997C150.535 306.046 151.224 305.268 152.214 304.966C153.635 304.577 155.056 305.441 155.401 306.824C155.745 308.207 154.927 309.676 153.549 310.022C152.516 310.281 151.482 309.892 150.836 309.114C150.621 310.108 149.846 310.93 148.813 311.146C147.779 311.362 146.746 310.886 146.143 310.065C145.885 311.059 145.067 311.837 143.99 311.967C142.914 312.14 141.923 311.578 141.406 310.757C141.062 311.707 140.244 312.442 139.167 312.528C139.081 312.528 139.038 312.528 138.952 312.528C137.531 312.528 136.412 311.535 136.282 310.152Z" fill="white"/>
<path d="M134.173 312.874C134 312.874 133.828 312.874 133.656 312.831C133.484 312.788 133.311 312.745 133.182 312.658C133.01 312.615 132.881 312.485 132.709 312.442C132.579 312.356 132.45 312.226 132.321 312.096C132.192 311.967 132.106 311.837 131.976 311.707C131.89 311.578 131.804 311.405 131.718 311.275C131.675 311.102 131.589 310.93 131.589 310.757C131.546 310.584 131.546 310.411 131.546 310.238C131.546 310.065 131.546 309.892 131.589 309.72C131.589 309.547 131.675 309.374 131.718 309.244C131.804 309.071 131.89 308.942 131.976 308.769C132.063 308.639 132.192 308.51 132.321 308.38C132.45 308.25 132.579 308.164 132.709 308.034C132.881 307.948 133.01 307.861 133.182 307.818C133.354 307.732 133.484 307.688 133.656 307.645C134.517 307.472 135.421 307.732 136.024 308.38C136.153 308.51 136.239 308.639 136.369 308.769C136.455 308.942 136.541 309.071 136.627 309.244C136.67 309.417 136.756 309.59 136.799 309.72C136.799 309.892 136.842 310.065 136.842 310.238C136.842 310.411 136.842 310.584 136.799 310.757C136.756 310.93 136.713 311.102 136.627 311.275C136.541 311.448 136.455 311.578 136.369 311.707C136.282 311.837 136.196 312.01 136.024 312.096C135.507 312.572 134.818 312.874 134.173 312.874Z" fill="white"/>
<path d="M236.18 337.982L228.128 337.42C226.104 337.29 224.123 337.809 222.444 338.933L207.675 348.915L207.545 355.181C212.282 360.713 222.788 355.743 222.788 355.743L232.52 355.441C234.113 355.397 235.491 354.36 236.051 352.891L239.581 343.211C240.443 340.748 238.763 338.155 236.18 337.982Z" fill="#903C38"/>
<path d="M69.2392 613H71.4353C72.2965 613 73.0285 612.265 73.1576 611.228L86.5921 517.539H76.3871L67.4738 610.623C67.3877 611.876 68.2058 613 69.2392 613Z" fill="#520DD0"/>
<path opacity="0.3" d="M69.2392 613H71.4353C72.2965 613 73.0285 612.265 73.1576 611.228L86.5921 517.539H76.3871L67.4738 610.623C67.3877 611.876 68.2058 613 69.2392 613Z" fill="#520DD0"/>
<path d="M41.2938 613H43.4898C44.351 613 45.083 612.265 45.2122 611.228L58.6467 517.539H48.4416L39.5284 610.623C39.4423 611.876 40.2173 613 41.2938 613Z" fill="#520DD0"/>
<path opacity="0.3" d="M41.2938 613H43.4898C44.351 613 45.083 612.265 45.2122 611.228L58.6467 517.539H48.4416L39.5284 610.623C39.4423 611.876 40.2173 613 41.2938 613Z" fill="#520DD0"/>
<path d="M196.996 613H194.8C193.939 613 193.207 612.265 193.078 611.228L179.643 517.539H189.891L198.761 610.623C198.891 611.876 198.072 613 196.996 613Z" fill="#520DD0"/>
<path opacity="0.3" d="M196.996 613H194.8C193.939 613 193.207 612.265 193.078 611.228L179.643 517.539H189.891L198.761 610.623C198.891 611.876 198.072 613 196.996 613Z" fill="#520DD0"/>
<path d="M224.984 613H222.788C221.927 613 221.195 612.265 221.066 611.228L207.632 517.539H217.837L226.707 610.623C226.836 611.876 226.018 613 224.984 613Z" fill="#520DD0"/>
<path opacity="0.3" d="M224.984 613H222.788C221.927 613 221.195 612.265 221.066 611.228L207.632 517.539H217.837L226.707 610.623C226.836 611.876 226.018 613 224.984 613Z" fill="#520DD0"/>
<path d="M261.197 406.477H192.561C180.418 364.04 136.584 330.549 91.7161 330.549H69.4545C22.52 330.549 -7.79372 367.238 1.76543 412.441C3.53086 420.738 6.50195 428.776 10.5065 436.295L21.3143 502.154C22.6922 510.668 29.4525 517.539 36.385 517.539H242.897C249.83 517.539 256.59 510.668 257.968 502.154L271.187 421.862C272.608 413.348 268.13 406.477 261.197 406.477Z" fill="#9C6FFF"/>
<path opacity="0.5" d="M261.197 406.477H192.561C180.418 364.04 136.584 330.549 91.7161 330.549H69.4545C22.52 330.549 -7.79372 367.238 1.76543 412.441C3.53086 420.738 6.50195 428.776 10.5065 436.295L21.3143 502.154C22.6922 510.668 29.4525 517.539 36.385 517.539H242.897C249.83 517.539 256.59 510.668 257.968 502.154L271.187 421.862C272.608 413.348 268.13 406.477 261.197 406.477Z" fill="white"/>

<path d="M252.241 97.9676H236.481V99.9123H252.241V97.9676Z" fill="#06b6d4"/>
<path d="M178.567 120.742H176.629V111.235C176.629 103.931 182.571 97.9676 189.848 97.9676H224.984V99.9123H189.891C183.648 99.9123 178.567 105.012 178.567 111.235V120.742Z" fill="#06b6d4"/>
<path d="M365.616 186.903H189.891C186.317 186.903 183.389 184.008 183.389 180.378V111.235C183.389 107.648 186.274 104.709 189.891 104.709H365.616C369.19 104.709 372.118 107.604 372.118 111.235V180.378C372.118 184.008 369.19 186.903 365.616 186.903Z" fill="#06b6d4"/>
<path d="M357.305 150.214H198.202C195.79 150.214 193.853 148.269 193.853 145.849C193.853 143.429 195.79 141.485 198.202 141.485H357.305C359.717 141.485 361.654 143.429 361.654 145.849C361.654 148.226 359.717 150.214 357.305 150.214Z" fill="white"/>
<path d="M323.246 168.364H198.202C195.79 168.364 193.853 166.42 193.853 164C193.853 161.58 195.79 159.635 198.202 159.635H323.246C325.657 159.635 327.595 161.58 327.595 164C327.595 166.42 325.657 168.364 323.246 168.364Z" fill="white"/>
<path d="M251.853 132.021H198.202C195.79 132.021 193.853 130.076 193.853 127.656C193.853 125.236 195.79 123.291 198.202 123.291H251.853C254.265 123.291 256.202 125.236 256.202 127.656C256.202 130.076 254.265 132.021 251.853 132.021Z" fill="white"/>

<path d="M322.987 132.021H269.335C266.924 132.021 264.986 130.076 264.986 127.656C264.986 125.236 266.924 123.291 269.335 123.291H322.987C325.398 123.291 327.336 125.236 327.336 127.656C327.336 130.076 325.398 132.021 322.987 132.021Z" fill="white"/>
<path d="M193.853 181.674V202.634C193.853 206.653 198.46 208.943 201.646 206.48L233.639 181.631L193.853 181.674Z" fill="#06b6d4"/>
<path d="M464.781 0.950722H289.057C285.483 0.950722 282.555 3.8461 282.555 7.47614V76.6196C282.555 80.2064 285.44 83.145 289.057 83.145H427.879L453.026 102.678C456.212 105.141 460.82 102.894 460.82 98.8319V83.145H464.781C468.355 83.145 471.283 80.2496 471.283 76.6196V7.47614C471.283 3.88932 468.355 0.950722 464.781 0.950722Z" fill="white"/>
<path d="M455.997 104.666C454.748 104.666 453.5 104.234 452.466 103.456L427.578 84.0957H289.057C284.966 84.0957 281.607 80.725 281.607 76.6196V7.47614C281.607 3.37074 284.966 0 289.057 0H464.781C468.872 0 472.23 3.37074 472.23 7.47614V76.6196C472.23 80.725 468.872 84.0957 464.781 84.0957H461.81V98.8319C461.81 101.079 460.561 103.067 458.581 104.061C457.72 104.493 456.858 104.666 455.997 104.666ZM289.057 1.94466C285.999 1.94466 283.545 4.45111 283.545 7.47614V76.6196C283.545 79.6878 286.042 82.1511 289.057 82.1511H428.224L453.629 101.9C454.835 102.851 456.342 102.981 457.72 102.332C459.097 101.684 459.872 100.344 459.872 98.8319V82.1511H464.781C467.838 82.1511 470.293 79.6446 470.293 76.6196V7.47614C470.293 4.40789 467.795 1.94466 464.781 1.94466H289.057Z" fill="#06b2d4"/>

<path d="M373.151 46.4125H456.471C458.882 46.4125 460.82 44.4679 460.82 42.0479C460.82 39.6278 458.882 37.6832 456.471 37.6832H373.151C370.74 37.6832 368.802 39.6278 368.802 42.0479C368.802 44.4679 370.783 46.4125 373.151 46.4125Z" fill="#06b6d4"/>
<path d="M315.021 46.4125H356.272C358.683 46.4125 360.621 44.4679 360.621 42.0479C360.621 39.6278 358.683 37.6832 356.272 37.6832H315.021C312.61 37.6832 310.672 39.6278 310.672 42.0479C310.629 44.4679 312.61 46.4125 315.021 46.4125Z" fill="#06b6d4"/>
<path d="M331.427 64.6059H456.471C458.882 64.6059 460.82 62.6613 460.82 60.2412C460.82 57.8212 458.882 55.8766 456.471 55.8766H331.427C329.016 55.8766 327.078 57.8212 327.078 60.2412C327.078 62.618 329.016 64.6059 331.427 64.6059Z" fill="#06b6d4"/>
<path d="M297.367 28.2624H456.471C458.882 28.2624 460.82 26.3177 460.82 23.8977C460.82 21.4777 458.882 19.533 456.471 19.533H297.367C294.956 19.533 293.018 21.4777 293.018 23.8977C293.018 26.3177 294.956 28.2624 297.367 28.2624Z" fill="#06b6d4"/>
</g>
<defs>
<clipPath id="clip0">
<rect width="621" height="613" fill="white"/>
</clipPath>
</defs>
</svg>
