<svg width="11" height="15" viewBox="0 0 11 15" fill="none" xmlns="http://www.w3.org/2000/svg">
<g clip-path="url(#clip0_4_35)">
<path d="M1.375 0C0.615885 0 0 0.629883 0 1.40625V13.5938C0 14.3701 0.615885 15 1.375 15H4.125V12.6562C4.125 11.8799 4.74089 11.25 5.5 11.25C6.25911 11.25 6.875 11.8799 6.875 12.6562V15H9.625C10.3841 15 11 14.3701 11 13.5938V1.40625C11 0.629883 10.3841 0 9.625 0H1.375ZM1.83333 7.03125C1.83333 6.77344 2.03958 6.5625 2.29167 6.5625H3.20833C3.46042 6.5625 3.66667 6.77344 3.66667 7.03125V7.96875C3.66667 8.22656 3.46042 8.4375 3.20833 8.4375H2.29167C2.03958 8.4375 1.83333 8.22656 1.83333 7.96875V7.03125ZM5.04167 6.5625H5.95833C6.21042 6.5625 6.41667 6.77344 6.41667 7.03125V7.96875C6.41667 8.22656 6.21042 8.4375 5.95833 8.4375H5.04167C4.78958 8.4375 4.58333 8.22656 4.58333 7.96875V7.03125C4.58333 6.77344 4.78958 6.5625 5.04167 6.5625ZM7.33333 7.03125C7.33333 6.77344 7.53958 6.5625 7.79167 6.5625H8.70833C8.96042 6.5625 9.16667 6.77344 9.16667 7.03125V7.96875C9.16667 8.22656 8.96042 8.4375 8.70833 8.4375H7.79167C7.53958 8.4375 7.33333 8.22656 7.33333 7.96875V7.03125ZM2.29167 2.8125H3.20833C3.46042 2.8125 3.66667 3.02344 3.66667 3.28125V4.21875C3.66667 4.47656 3.46042 4.6875 3.20833 4.6875H2.29167C2.03958 4.6875 1.83333 4.47656 1.83333 4.21875V3.28125C1.83333 3.02344 2.03958 2.8125 2.29167 2.8125ZM4.58333 3.28125C4.58333 3.02344 4.78958 2.8125 5.04167 2.8125H5.95833C6.21042 2.8125 6.41667 3.02344 6.41667 3.28125V4.21875C6.41667 4.47656 6.21042 4.6875 5.95833 4.6875H5.04167C4.78958 4.6875 4.58333 4.47656 4.58333 4.21875V3.28125ZM7.79167 2.8125H8.70833C8.96042 2.8125 9.16667 3.02344 9.16667 3.28125V4.21875C9.16667 4.47656 8.96042 4.6875 8.70833 4.6875H7.79167C7.53958 4.6875 7.33333 4.47656 7.33333 4.21875V3.28125C7.33333 3.02344 7.53958 2.8125 7.79167 2.8125Z" fill="#10828C"/>
</g>
<defs>
<clipPath id="clip0_4_35">
<rect width="11" height="15" fill="white"/>
</clipPath>
</defs>
</svg>
