<svg width="17" height="19" viewBox="0 0 17 19" fill="none" xmlns="http://www.w3.org/2000/svg">
<path d="M13.3571 8.3125C15.3683 8.3125 17 6.7168 17 4.75C17 2.7832 15.3683 1.1875 13.3571 1.1875C11.346 1.1875 9.71429 2.7832 9.71429 4.75C9.71429 4.89844 9.72188 5.04687 9.74085 5.1916L6.17009 6.93574C5.51741 6.31602 4.62567 5.9375 3.64286 5.9375C1.6317 5.9375 0 7.5332 0 9.5C0 11.4668 1.6317 13.0625 3.64286 13.0625C4.62567 13.0625 5.51741 12.684 6.17009 12.0643L9.74085 13.8084C9.72188 13.9531 9.71429 14.0979 9.71429 14.25C9.71429 16.2168 11.346 17.8125 13.3571 17.8125C15.3683 17.8125 17 16.2168 17 14.25C17 12.2832 15.3683 10.6875 13.3571 10.6875C12.3743 10.6875 11.4826 11.066 10.8299 11.6857L7.25915 9.9416C7.27813 9.79687 7.28571 9.65215 7.28571 9.5C7.28571 9.34785 7.27813 9.20313 7.25915 9.0584L10.8299 7.31426C11.4826 7.93398 12.3743 8.3125 13.3571 8.3125Z" fill="#10828C"/>
</svg>
